HIERARCHY
ROOT ui
{
	 OFFSET 0 0 0
	 CHANNELS 3 XPosition YPosition Z Position
	 EndSite
	 {
	 OFFSET 0 -1 0
	 }
}
ROOT li
{
	 OFFSET 0 0 0
	 CHANNELS 3 XPosition YPosition Z Position
	 EndSite
	 {
	 OFFSET 0 -1 0
	 }
}
ROOT ul
{
	 OFFSET 0 0 0
	 CHANNELS 3 XPosition YPosition Z Position
	 EndSite
	 {
	 OFFSET 0 -1 0
	 }
}
ROOT ll
{
	 OFFSET 0 0 0
	 CHANNELS 3 XPosition YPosition Z Position
	 EndSite
	 {
	 OFFSET 0 -1 0
	 }
}
ROOT tt
{
	 OFFSET 0 0 0
	 CHANNELS 3 XPosition YPosition Z Position
	 EndSite
	 {
	 OFFSET 0 -1 0
	 }
}
ROOT tb
{
	 OFFSET 0 0 0
	 CHANNELS 3 XPosition YPosition Z Position
	 EndSite
	 {
	 OFFSET 0 -1 0
	 }
}
ROOT td
{
	 OFFSET 0 0 0
	 CHANNELS 3 XPosition YPosition Z Position
	 EndSite
	 {
	 OFFSET 0 -1 0
	 }
}
ROOT v
{
	 OFFSET 0 0 0
	 CHANNELS 3 XPosition YPosition Z Position
	 EndSite
	 {
	 OFFSET 0 -1 0
	 }
}
ROOT bn
{
	 OFFSET 0 0 0
	 CHANNELS 3 XPosition YPosition Z Position
	 EndSite
	 {
	 OFFSET 0 -1 0
	 }
}
MOTION
Frames: 32
Frame Time: 0.002
-0.0013180559873580933	0.0014606570005416871	0		0.45967605590820315	-2.483113525390625	0		-1.16371240234375	0.0697049560546875	0		-0.6410093994140625	-2.75548193359375	0		1.5537659912109374	-0.8246166381835938	0		3.100043701171875	-0.0795353012084961	0		4.5744990234375	0.16721730041503907	0		5.80696875	0.4067562255859375	0		-0.4588851318359375	5.83915869140625	0		
0.0076098361015319825	-1.7475000023841857E-4	0		0.48064532470703125	-2.4728798828125	0		-1.15773388671875	0.07313324737548828	0		-0.6741039428710938	-2.750691162109375	0		1.560746826171875	-0.8182796020507812	0		3.118220947265625	-0.0553521842956543	0		4.583703125	0.1934434356689453	0		5.81347412109375	0.43822463989257815	0		-0.32357479858398436	5.8583134765625	0		
-0.009366497039794922	0.010465175628662109	0		0.4685267028808594	-2.469302490234375	0		-1.131933837890625	0.06039070510864258	0		-0.6182827758789062	-2.752740478515625	0		1.552541259765625	-0.828772705078125	0		3.09291259765625	-0.07872584533691407	0		4.5875078125	0.18074324035644532	0		5.80338720703125	0.4268724670410156	0		-0.4586622619628906	5.84011328125	0		
-0.008490323066711426	0.009959877967834473	0		0.49328033447265623	-2.4750556640625	0		-1.169044677734375	0.06128909683227539	0		-0.688445068359375	-2.748535400390625	0		1.54745166015625	-0.8232655029296875	0		3.118843505859375	-0.07356624603271485	0		4.58838916015625	0.1801033630371094	0		5.79690087890625	0.43106298828125	0		-0.45761541748046874	5.83962109375	0		
-0.07878372955322266	-0.0018171210289001465	0		0.47595321655273437	-2.48336572265625	0		-1.1682225341796875	0.060849407196044925	0		-0.6547529907226562	-2.754311279296875	0		1.554189697265625	-0.8298404541015625	0		3.124602783203125	-0.08017591857910156	0		4.58921484375	0.17950076293945313	0		5.79457666015625	0.41619033813476564	0		-0.48968695068359375	5.833484375	0		
0.00298738694190979	-0.0010476369857788086	0		0.48171047973632813	-2.476865478515625	0		-1.154358154296875	0.07131510162353516	0		-0.683981689453125	-2.745437255859375	0		1.5609913330078125	-0.82337890625	0		3.109552978515625	-0.06054120254516602	0		4.5840341796875	0.1849987030029297	0		5.79802392578125	0.42893646240234373	0		-0.4547275390625	5.83772607421875	0		
-0.006224681854248047	0.008649676322937012	0		0.5093078002929687	-2.48054345703125	0		-1.1237474365234374	0.06264818572998047	0		-0.648391357421875	-2.749165283203125	0		1.5587586669921876	-0.813788818359375	0		3.1150927734375	-0.07606671142578125	0		4.59472705078125	0.18438699340820314	0		5.79911669921875	0.40030157470703126	0		-0.45488494873046875	5.8383466796875	0		
0.004302806854248047	-0.001810539960861206	0		0.4719715270996094	-2.471542236328125	0		-1.166147216796875	0.05973425674438477	0		-0.65086328125	-2.753483642578125	0		1.553298828125	-0.821125	0		3.134844970703125	-0.06368381881713867	0		4.595357421875	0.18392610168457033	0		5.79115185546875	0.43599285888671874	0		-0.3189425048828125	5.85666162109375	0		
-0.005029109001159668	0.007964320182800293	0		0.49644622802734373	-2.47711083984375	0		-1.0885909423828124	0.057670845031738284	0		-0.6173939819335937	-2.759121337890625	0		1.5508138427734375	-0.8254459228515625	0		3.122294677734375	-0.07593343353271484	0		4.5959296875	0.18352174377441408	0		5.78864794921875	0.421486328125	0		-0.4544515075683594	5.8386884765625	0		
0.00538816499710083	-0.002418792963027954	0		0.45187228393554685	-2.482956787109375	0		-1.1650599365234375	0.059162399291992185	0		-0.686851806640625	-2.75270556640625	0		1.5543587646484376	-0.8217814331054687	0		3.10782080078125	-0.07511190032958984	0		4.59442919921875	0.18119497680664062	0		5.78539404296875	0.4071054382324219	0		-0.45286624145507814	5.83739990234375	0		
0.005857614994049072	-0.002665807008743286	0		0.5202462768554688	-2.490880859375	0		-1.1605604248046875	0.061886398315429685	0		-0.6344696044921875	-2.7594609375	0		1.566820068359375	-0.8221614990234375	0		3.13619921875	-0.08466423797607422	0		4.594900390625	0.18090576171875	0		5.78572900390625	0.40658642578125	0		-0.45036297607421877	5.8351376953125	0		
0.009323839187622071	0.0010941480398178102	0		0.450912109375	-2.4654013671875	0		-1.1510545654296875	0.06959236145019532	0		-0.6439566040039062	-2.7495693359375	0		1.5633421630859374	-0.812340087890625	0		3.124873779296875	-0.05977185440063477	0		4.59938720703125	0.18663352966308594	0		5.79316552734375	0.4060033264160156	0		-0.3166965942382812	5.85561083984375	0		
0.006671297073364258	-0.0030498480796813964	0		0.5001961059570312	-2.476060302734375	0		-1.1257877197265624	0.05717205047607422	0		-0.64862060546875	-2.754693115234375	0		1.558659423828125	-0.8194650268554687	0		3.11098388671875	-0.08780753326416016	0		4.59686328125	0.19548619079589843	0		5.78690185546875	0.37644229125976564	0		-0.45149774169921875	5.83677587890625	0		
0.007019454002380371	-0.0031878650188446045	0		0.4725633544921875	-2.474919677734375	0		-1.163427978515625	0.05840674591064453	0		-0.650283447265625	-2.756813232421875	0		1.5500404052734376	-0.8165091552734375	0		3.109451416015625	-0.07591653442382812	0		4.59808203125	0.1823533935546875	0		5.7800390625	0.38159603881835935	0		-0.465266357421875	5.826775390625	0		
-0.002572374105453491	0.006808522224426269	0		0.5087669067382813	-2.48737451171875	0		-1.12513134765625	0.056921314239501954	0		-0.6958464965820312	-2.745464599609375	0		1.55629443359375	-0.8226607055664062	0		3.125640869140625	-0.08815708923339843	0		4.60331005859375	0.1742307891845703	0		5.7760576171875	0.4006131896972656	0		-0.4508956298828125	5.83653125	0		
0.007595571994781494	-0.0033560130596160887	0		0.4581376953125	-2.478932373046875	0		-1.162852783203125	0.0582210578918457	0		-0.6347162475585938	-2.762139404296875	0		1.562637939453125	-0.8157728881835937	0		3.114156982421875	-0.06307838058471679	0		4.5957744140625	0.1942831268310547	0		5.7762490234375	0.4005860290527344	0		-0.4496893310546875	5.835451171875	0		
0.010858242988586425	5.840870141983032E-4	0		0.5034452209472656	-2.473402099609375	0		-1.1586007080078125	0.06113849639892578	0		-0.6793222045898437	-2.747732666015625	0		1.5628701171875	-0.815785888671875	0		3.1301826171875	-0.08323146057128906	0		4.6059951171875	0.19420457458496093	0		5.78354052734375	0.4004721374511719	0		-0.449530029296875	5.83541650390625	0		
-0.001906898021697998	0.006717710971832275	0		0.4756537780761719	-2.473114013671875	0		-1.124467529296875	0.05679376220703125	0		-0.6471820678710938	-2.75505126953125	0		1.5600164794921876	-0.819730224609375	0		3.12353662109375	-0.06511704254150391	0		4.6031083984375	0.18829989624023438	0		5.7871689453125	0.38495687866210937	0		-0.45042095947265626	5.83642578125	0		
0.008115262985229492	-0.003339690923690796	0		0.5096726989746094	-2.487400390625	0		-1.12434716796875	0.0568174819946289	0		-0.6840076904296875	-2.753656005859375	0		1.5511800537109375	-0.81657763671875	0		3.12554052734375	-0.07704852294921875	0		4.60322705078125	0.18840980529785156	0		5.78725537109375	0.38517739868164064	0		-0.4503875427246094	5.83645947265625	0		
-0.07283855438232421	-0.004468224048614502	0		0.473897216796875	-2.47496337890625	0		-1.1622745361328124	0.05824647903442383	0		-0.6489295043945312	-2.75693701171875	0		1.55719677734375	-0.8225347900390625	0		3.1106142578125	-0.07577235412597656	0		4.60720654296875	0.18052507019042968	0		5.77435693359375	0.35983648681640623	0		-0.4504263610839844	5.83652685546875	0		
-0.001723415970802307	0.006941186904907227	0		0.486906982421875	-2.47897314453125	0		-1.1622750244140625	0.058331615447998045	0		-0.6668734130859375	-2.7566650390625	0		1.5632821044921874	-0.815455078125	0		3.13852685546875	-0.0848770523071289	0		4.60519384765625	0.1797439727783203	0		5.78730078125	0.3858634948730469	0		-0.4485607604980469	5.8346064453125	0		
0.011161138534545898	9.547929763793945E-4	0		0.4889267578125	-2.47684130859375	0		-1.119304931640625	0.0610247802734375	0		-0.6308783569335937	-2.757891845703125	0		1.56527392578125	-0.8122987060546875	0		3.121786865234375	-0.05250037384033203	0		4.61033935546875	0.2009390411376953	0		5.780150390625	0.3916922607421875	0		-0.3145498046875	5.854423828125	0		
0.008017918586730958	-0.0028434369564056395	0		0.47592581176757814	-2.47252978515625	0		-1.1624381103515624	0.05858800506591797	0		-0.679831298828125	-2.749258056640625	0		1.5562203369140626	-0.808998779296875	0		3.10039208984375	-0.08204163360595704	0		4.61109326171875	0.18722048950195314	0		5.7764541015625	0.3784912109375	0		-0.450983642578125	5.83691650390625	0		
-0.00202878999710083	0.007455523014068603	0		0.49980181884765623	-2.4775478515625	0		-1.1286248779296875	0.05442591857910156	0		-0.6489672241210938	-2.756377197265625	0		1.554069580078125	-0.8117329711914063	0		3.121258544921875	-0.08095596313476562	0		4.602962890625	0.1896314697265625	0		5.7692412109375	0.3844822082519531	0		-0.48534158325195315	5.83243701171875	0		
-0.0024013218879699707	-0.012313600540161132	0		0.4546437072753906	-2.482865478515625	0		-1.167802978515625	0.05499969863891602	0		-0.6731177368164063	-2.761933837890625	0		1.5539163818359376	-0.8114552001953125	0		3.1260244140625	-0.08667822265625	0		4.59583740234375	0.19607066345214844	0		5.76689892578125	0.3662070617675781	0		-0.3164644775390625	5.8560107421875	0		
-0.00241280198097229	0.00794193696975708	0		0.48553656005859375	-2.480894287109375	0		-1.1629715576171875	0.05916992950439453	0		-0.680107666015625	-2.748632080078125	0		1.5627078857421874	-0.8142352905273438	0		3.111015869140625	-0.0661764144897461	0		4.6105478515625	0.18833114624023437	0		5.77317236328125	0.3668216247558594	0		-0.48510284423828126	5.83188330078125	0		
-0.002638643026351929	0.008223483085632324	0		0.45052944946289064	-2.466259765625	0		-1.1631990966796875	0.05941317367553711	0		-0.6792233276367188	-2.746382568359375	0		1.5555672607421875	-0.8078348999023437	0		3.114647705078125	-0.08082997131347656	0		4.59945166015625	0.20287033081054687	0		5.76880908203125	0.3867663879394531	0		-0.4514742736816406	5.83682080078125	0		
0.007026072978973389	-0.001567574977874756	0		0.49927310180664064	-2.476410888671875	0		-1.1294794921875	0.05535340118408203	0		-0.64744091796875	-2.7534072265625	0		1.553326416015625	-0.8104601440429687	0		3.133535888671875	-0.06760683441162109	0		4.6051484375	0.19726768493652344	0		5.76282470703125	0.3600719909667969	0		-0.45190322875976563	5.83711083984375	0		
-0.007150146961212158	0.005890893936157227	0		0.46321371459960936	-2.464726318359375	0		-1.168723388671875	0.056015979766845705	0		-0.64961767578125	-2.755083740234375	0		1.5500697021484375	-0.8140580444335938	0		3.10923779296875	-0.07295407104492188	0		4.6098212890625	0.18968894958496094	0		5.759744140625	0.3471711730957031	0		-0.4533204040527344	5.8384306640625	0		
-5.166860222816467E-4	-0.006835048198699951	0		0.5068317260742188	-2.48679150390625	0		-1.12996875	0.05595003890991211	0		-0.6738353271484375	-2.76053271484375	0		1.5528896484375	-0.8097011108398438	0		3.115007080078125	-0.07158010864257812	0		4.60957421875	0.19016404724121094	0		5.75957275390625	0.34804983520507815	0		-0.452742431640625	5.83774853515625	0		
0.011269622802734375	-0.004596879005432129	0		0.4696950988769531	-2.483073486328125	0		-1.1641629638671875	0.06059629440307617	0		-0.6679381713867187	-2.75425537109375	0		1.5616495361328124	-0.8123932495117188	0		3.12268115234375	-0.08122126007080079	0		4.61138427734375	0.19561869812011717	0		5.759408203125	0.3489208679199219	0		-0.4511476745605469	5.83606982421875	0		
0.006092318058013916	-1.88168004155159E-4	0		0.5046769714355469	-2.46803466796875	0		-1.1263912353515626	0.059570037841796875	0		-0.6779860229492187	-2.74281494140625	0		1.557547607421875	-0.8019589233398438	0		3.124704833984375	-0.055809005737304684	0		4.62116357421875	0.19599006652832032	0		5.75925537109375	0.3497718200683594	0		-0.45248687744140625	5.83743017578125	0		
